<svg width="1178" height="548" viewBox="0 0 1178 548" fill="none" xmlns="http://www.w3.org/2000/svg">
<rect width="1178" height="548" fill="#F6B047"/>
<path d="M181.494 245.378C182.053 240.031 182.737 233.845 183.545 226.819C184.354 219.794 185.224 212.457 186.157 204.81C187.089 197.1 188.022 189.359 188.955 181.587C189.949 173.816 190.913 166.541 191.846 159.764C188.55 166.106 185.224 172.479 181.867 178.883C178.509 185.287 175.307 191.38 172.261 197.162C169.276 202.882 166.51 208.074 163.96 212.737C161.473 217.4 159.453 221.161 157.898 224.021C156.468 225.949 155.038 227.783 153.608 229.524C152.178 231.265 150.748 232.788 149.318 234.094C147.951 235.399 146.583 236.456 145.215 237.265C143.847 238.011 142.51 238.384 141.205 238.384C139.464 238.384 138.065 238.011 137.008 237.265C136.013 236.519 135.516 235.399 135.516 233.907C135.516 233.596 135.516 233.317 135.516 233.068C135.578 232.757 135.671 232.446 135.795 232.135C135.422 223.306 135.143 214.416 134.956 205.462C134.77 196.447 134.676 187.587 134.676 178.883C134.676 176.831 134.676 174.779 134.676 172.728C134.676 170.676 134.707 168.655 134.77 166.666C132.283 172.261 129.578 178.075 126.656 184.105C123.734 190.136 120.687 196.105 117.516 202.012C114.345 207.856 111.081 213.514 107.724 218.985C104.366 224.395 101.009 229.337 97.6514 233.814C94.2939 238.228 90.9676 242.021 87.6724 245.192C84.4393 248.301 81.3306 250.477 78.3462 251.72C75.7349 252.777 73.4655 253.523 71.5381 253.958C69.6107 254.456 67.9009 254.705 66.4087 254.705C64.1704 254.705 62.4917 254.238 61.3726 253.306C60.3156 252.435 59.7871 251.347 59.7871 250.042C59.7871 248.487 60.4399 246.871 61.7456 245.192C63.0513 243.513 64.8854 242.208 67.248 241.275C70.1081 240.156 73.2168 237.7 76.5742 233.907C79.9938 230.052 83.5067 225.389 87.1128 219.918C90.7189 214.447 94.3561 208.354 98.0244 201.639C101.693 194.924 105.237 188.116 108.656 181.214C112.138 174.313 115.402 167.567 118.449 160.977C121.495 154.324 124.2 148.324 126.562 142.977C128.925 137.63 130.853 133.185 132.345 129.641C133.899 126.035 134.863 123.796 135.236 122.926C136.106 120.998 137.319 119.599 138.873 118.729C140.427 117.859 142.013 117.423 143.629 117.423C145.868 117.423 147.422 118.045 148.292 119.289C149.163 120.47 149.598 122.615 149.598 125.724C150.096 129.641 150.5 133.34 150.811 136.822C151.184 140.241 151.494 143.785 151.743 147.454C151.992 151.06 152.147 154.977 152.209 159.205C152.334 163.37 152.396 168.189 152.396 173.66C152.396 177.577 152.303 181.898 152.116 186.624C151.992 191.349 151.93 196.634 151.93 202.478C159.391 188.924 165.981 176.986 171.701 166.666C177.483 156.282 182.488 147.609 186.716 140.646C191.006 133.62 194.612 128.335 197.535 124.791C200.457 121.185 202.788 119.382 204.529 119.382H205.182C205.369 119.382 205.555 119.382 205.742 119.382C205.928 119.32 206.115 119.289 206.301 119.289C207.793 119.289 208.975 120.221 209.845 122.086C210.716 123.952 211.151 126.376 211.151 129.361C210.902 132.407 210.529 136.2 210.032 140.739C209.534 145.278 208.944 150.283 208.26 155.754C207.638 161.163 206.954 166.883 206.208 172.914C205.462 178.945 204.716 184.945 203.97 190.914C203.224 196.82 202.509 202.571 201.825 208.167C201.203 213.763 200.674 218.83 200.239 223.369C200.115 224.177 200.053 225.016 200.053 225.887C200.053 226.695 200.053 227.534 200.053 228.405C200.053 230.021 200.084 231.669 200.146 233.348C200.208 234.964 200.239 236.581 200.239 238.197C200.239 240.062 200.146 241.959 199.959 243.886C199.773 245.751 199.244 247.461 198.374 249.016C197.566 250.508 196.26 251.72 194.457 252.653C192.654 253.648 190.167 254.145 186.996 254.145C185.317 254.145 183.981 253.492 182.986 252.187C181.991 250.943 181.494 248.674 181.494 245.378ZM245.191 171.329C245.191 169.899 245.44 168.438 245.938 166.945C246.497 165.391 247.305 163.992 248.362 162.749C249.419 161.505 250.725 160.479 252.279 159.671C253.896 158.863 255.792 158.458 257.968 158.458C261.574 158.458 264.092 159.174 265.522 160.604C266.952 161.971 267.667 163.712 267.667 165.826C267.667 167.007 267.419 168.313 266.921 169.743C266.486 171.173 265.802 172.51 264.87 173.753C263.937 174.935 262.725 175.93 261.232 176.738C259.74 177.546 257.968 177.95 255.917 177.95C252.062 177.95 249.357 177.36 247.803 176.178C246.248 174.935 245.378 173.318 245.191 171.329ZM234.933 192.312C235.99 190.572 237.202 189.328 238.57 188.582C239.938 187.836 241.337 187.463 242.767 187.463C245.129 187.463 247.15 188.24 248.829 189.794C250.569 191.287 251.44 193.214 251.44 195.577C251.378 196.136 251.285 196.696 251.16 197.255C251.098 197.815 250.911 198.375 250.601 198.934C249.73 200.551 249.015 201.918 248.456 203.038C247.896 204.157 247.368 205.214 246.87 206.208C246.435 207.141 246 208.074 245.564 209.006C245.129 209.939 244.601 211.058 243.979 212.364C243.233 213.918 242.394 215.628 241.461 217.493C240.528 219.296 239.627 221.161 238.756 223.089C237.948 225.016 237.233 226.913 236.611 228.778C236.052 230.643 235.772 232.353 235.772 233.907C235.772 235.586 236.176 236.705 236.984 237.265C237.855 237.762 239.067 238.011 240.622 238.011C242.362 238.011 244.166 237.638 246.031 236.892C247.958 236.146 249.886 235.182 251.813 234C253.74 232.819 255.637 231.482 257.502 229.99C259.367 228.436 261.108 226.882 262.725 225.327C264.403 223.773 265.927 222.281 267.294 220.851C268.724 219.421 269.906 218.146 270.838 217.027C272.082 215.846 273.325 215.255 274.569 215.255C275.688 215.255 276.59 215.752 277.273 216.747C278.02 217.742 278.393 219.016 278.393 220.571C278.393 222.001 278.02 223.524 277.273 225.141C276.59 226.757 275.439 228.28 273.823 229.71C270.652 232.944 267.419 236.052 264.124 239.037C260.828 241.959 257.44 244.57 253.958 246.871C250.538 249.109 247.088 250.912 243.606 252.28C240.124 253.648 236.611 254.332 233.067 254.332C228.031 254.332 224.052 253.057 221.13 250.508C218.27 247.896 216.84 243.855 216.84 238.384C216.84 235.524 217.244 232.726 218.052 229.99C218.861 227.255 219.824 224.612 220.943 222.063C222.062 219.452 223.244 216.965 224.487 214.602C225.731 212.177 226.788 209.877 227.658 207.701C227.969 206.892 228.498 205.649 229.244 203.97C230.052 202.292 230.891 200.582 231.762 198.841C232.757 196.789 233.813 194.613 234.933 192.312ZM294.247 199.494C298.04 201.483 301.428 203.753 304.413 206.302C307.397 208.851 309.915 211.556 311.967 214.416C314.081 217.213 315.666 220.073 316.723 222.996C317.842 225.918 318.402 228.778 318.402 231.576C318.402 235.12 317.376 238.322 315.324 241.182C313.335 243.979 310.692 246.373 307.397 248.363C304.164 250.29 300.433 251.751 296.206 252.746C292.04 253.803 287.812 254.332 283.522 254.332C280.289 254.332 277.149 253.958 274.103 253.212C271.056 252.528 268.258 251.44 265.709 249.948C263.222 248.456 261.077 246.56 259.274 244.259C257.471 241.897 256.196 239.099 255.45 235.866C255.326 235.368 255.264 234.964 255.264 234.653C255.264 232.975 255.854 231.545 257.036 230.363C258.217 229.12 259.523 228.498 260.953 228.498C261.637 228.498 262.383 228.622 263.191 228.871C264.061 229.12 264.714 229.679 265.149 230.55C265.958 232.042 267.077 233.379 268.507 234.56C269.999 235.741 271.647 236.767 273.45 237.638C275.253 238.446 277.149 239.099 279.139 239.596C281.19 240.031 283.18 240.249 285.107 240.249C287.097 240.249 288.993 240.062 290.796 239.689C292.662 239.316 294.278 238.726 295.646 237.917C297.076 237.109 298.195 236.083 299.003 234.84C299.812 233.596 300.216 232.073 300.216 230.27C300.216 227.099 299.501 224.177 298.071 221.503C296.641 218.83 294.776 216.374 292.475 214.136C290.237 211.835 287.657 209.721 284.734 207.794C281.874 205.804 279.014 203.908 276.154 202.105C275.843 201.918 275.377 201.39 274.755 200.52C274.134 199.587 273.823 198.654 273.823 197.722C273.823 196.976 274.009 196.385 274.382 195.95C275.377 194.644 276.527 193.307 277.833 191.939C279.139 190.572 280.538 189.328 282.03 188.209C283.522 187.028 285.139 186.095 286.879 185.411C288.62 184.665 290.423 184.292 292.289 184.292C293.656 184.292 294.931 184.479 296.112 184.852C297.294 185.225 298.288 185.722 299.097 186.344C299.905 186.903 300.527 187.556 300.962 188.302C301.459 188.986 301.708 189.639 301.708 190.261C301.708 191.131 301.49 191.971 301.055 192.779C300.62 193.587 300.029 194.364 299.283 195.11C298.599 195.856 297.791 196.603 296.858 197.349C295.988 198.095 295.118 198.81 294.247 199.494ZM388.908 199.027C385.675 199.152 382.597 199.245 379.675 199.307C376.815 199.369 374.017 199.431 371.281 199.494C368.546 199.494 365.841 199.494 363.167 199.494C360.494 199.494 357.789 199.494 355.054 199.494C353.437 202.665 351.603 206.364 349.551 210.592C347.562 214.757 345.448 219.141 343.209 223.742C341.033 228.343 338.826 233.006 336.588 237.731C334.412 242.394 332.329 246.84 330.339 251.067C328.35 255.233 326.547 258.995 324.93 262.352C323.314 265.772 322.008 268.476 321.013 270.466C320.329 271.896 319.49 273.201 318.495 274.383C317.5 275.626 316.412 276.683 315.231 277.554C314.05 278.424 312.837 279.077 311.594 279.512C310.35 280.01 309.2 280.258 308.143 280.258C306.651 280.258 305.314 279.885 304.133 279.139C302.951 278.393 302.361 277.212 302.361 275.595C302.361 274.787 302.547 273.823 302.92 272.704C303.293 271.647 303.822 270.404 304.506 268.974L337.427 199.214H332.484C329.065 199.214 326.733 198.685 325.49 197.628C324.246 196.571 323.625 195.328 323.625 193.898C323.625 192.406 324.402 190.976 325.956 189.608C327.51 188.178 329.78 187.463 332.764 187.463H343.769C348.183 178.572 352.598 171.235 357.012 165.453C361.489 159.671 365.872 155.101 370.162 151.744C374.452 148.386 378.618 146.055 382.659 144.749C386.763 143.443 390.68 142.791 394.41 142.791C396.151 142.791 397.799 143.132 399.353 143.816C400.97 144.5 402.368 145.526 403.55 146.894C404.793 148.262 405.788 150.003 406.534 152.117C407.28 154.168 407.653 156.593 407.653 159.391C407.653 162.065 407.28 165.018 406.534 168.251C406.348 169.121 405.975 169.868 405.415 170.489C404.855 171.049 404.234 171.515 403.55 171.888C402.866 172.261 402.182 172.541 401.498 172.728C400.814 172.852 400.223 172.914 399.726 172.914C398.483 172.914 397.332 172.634 396.275 172.075C395.218 171.453 394.69 170.52 394.69 169.277C394.69 168.469 394.721 167.722 394.783 167.039C394.908 166.355 394.97 165.671 394.97 164.987C394.97 162.375 394.472 160.51 393.478 159.391C392.545 158.272 391.27 157.712 389.654 157.712C387.726 157.712 385.457 158.552 382.846 160.23C380.297 161.909 377.685 164.147 375.012 166.945C372.4 169.743 369.882 172.945 367.458 176.551C365.033 180.095 363.043 183.732 361.489 187.463H383.219C385.146 187.463 386.949 187.494 388.628 187.556C390.307 187.618 391.768 187.805 393.011 188.116C394.317 188.427 395.312 188.955 395.996 189.701C396.742 190.385 397.115 191.411 397.115 192.779C397.115 193.463 396.99 194.147 396.742 194.831C396.493 195.514 396.058 196.167 395.436 196.789C394.876 197.349 394.068 197.846 393.011 198.281C391.954 198.654 390.586 198.903 388.908 199.027ZM394.224 171.329C394.224 169.899 394.472 168.438 394.97 166.945C395.529 165.391 396.338 163.992 397.395 162.749C398.451 161.505 399.757 160.479 401.312 159.671C402.928 158.863 404.824 158.458 407 158.458C410.607 158.458 413.125 159.174 414.555 160.604C415.985 161.971 416.7 163.712 416.7 165.826C416.7 167.007 416.451 168.313 415.954 169.743C415.518 171.173 414.834 172.51 413.902 173.753C412.969 174.935 411.757 175.93 410.265 176.738C408.772 177.546 407 177.95 404.949 177.95C401.094 177.95 398.389 177.36 396.835 176.178C395.281 174.935 394.41 173.318 394.224 171.329ZM383.965 192.312C385.022 190.572 386.234 189.328 387.602 188.582C388.97 187.836 390.369 187.463 391.799 187.463C394.161 187.463 396.182 188.24 397.861 189.794C399.602 191.287 400.472 193.214 400.472 195.577C400.41 196.136 400.317 196.696 400.192 197.255C400.13 197.815 399.944 198.375 399.633 198.934C398.762 200.551 398.047 201.918 397.488 203.038C396.928 204.157 396.4 205.214 395.902 206.208C395.467 207.141 395.032 208.074 394.597 209.006C394.161 209.939 393.633 211.058 393.011 212.364C392.265 213.918 391.426 215.628 390.493 217.493C389.561 219.296 388.659 221.161 387.789 223.089C386.98 225.016 386.265 226.913 385.644 228.778C385.084 230.643 384.804 232.353 384.804 233.907C384.804 235.586 385.208 236.705 386.017 237.265C386.887 237.762 388.099 238.011 389.654 238.011C391.395 238.011 393.198 237.638 395.063 236.892C396.99 236.146 398.918 235.182 400.845 234C402.773 232.819 404.669 231.482 406.534 229.99C408.399 228.436 410.14 226.882 411.757 225.327C413.436 223.773 414.959 222.281 416.327 220.851C417.757 219.421 418.938 218.146 419.871 217.027C421.114 215.846 422.358 215.255 423.601 215.255C424.72 215.255 425.622 215.752 426.306 216.747C427.052 217.742 427.425 219.016 427.425 220.571C427.425 222.001 427.052 223.524 426.306 225.141C425.622 226.757 424.472 228.28 422.855 229.71C419.684 232.944 416.451 236.052 413.156 239.037C409.861 241.959 406.472 244.57 402.99 246.871C399.571 249.109 396.12 250.912 392.638 252.28C389.156 253.648 385.644 254.332 382.1 254.332C377.063 254.332 373.084 253.057 370.162 250.508C367.302 247.896 365.872 243.855 365.872 238.384C365.872 235.524 366.276 232.726 367.084 229.99C367.893 227.255 368.856 224.612 369.976 222.063C371.095 219.452 372.276 216.965 373.52 214.602C374.763 212.177 375.82 209.877 376.69 207.701C377.001 206.892 377.53 205.649 378.276 203.97C379.084 202.292 379.924 200.582 380.794 198.841C381.789 196.789 382.846 194.613 383.965 192.312ZM444.305 200.146C442.005 204.623 439.829 209.006 437.777 213.296C435.725 217.524 433.798 221.441 431.995 225.047C431.249 226.54 430.502 228.28 429.756 230.27C429.072 232.197 428.73 233.907 428.73 235.399C428.73 236.27 428.917 236.954 429.29 237.451C429.725 237.949 430.409 238.197 431.342 238.197C432.647 238.197 434.295 237.824 436.285 237.078C438.274 236.27 440.419 235.244 442.72 234C445.02 232.695 447.445 231.234 449.994 229.617C452.543 227.938 455.03 226.229 457.455 224.488C459.942 222.685 462.305 220.913 464.543 219.172C466.781 217.369 468.771 215.721 470.512 214.229C471.507 213.545 472.439 213.203 473.31 213.203C474.367 213.203 475.237 213.669 475.921 214.602C476.605 215.535 476.947 216.716 476.947 218.146C476.947 219.576 476.605 221.037 475.921 222.529C475.237 224.021 473.993 225.483 472.19 226.913C468.149 230.581 464.046 234.063 459.88 237.358C455.776 240.653 451.673 243.575 447.569 246.125C443.528 248.611 439.518 250.601 435.539 252.093C431.559 253.585 427.705 254.332 423.974 254.332C421.487 254.332 419.404 253.99 417.726 253.306C416.047 252.684 414.679 251.813 413.622 250.694C412.627 249.513 411.912 248.176 411.477 246.684C411.042 245.13 410.824 243.482 410.824 241.741C410.824 238.632 411.353 235.399 412.41 232.042C413.467 228.685 414.648 225.669 415.954 222.996C417.819 219.141 419.653 215.317 421.456 211.524C423.321 207.732 425.124 204.095 426.865 200.613H422.855C419.373 200.613 416.979 200.053 415.674 198.934C414.368 197.815 413.715 196.54 413.715 195.11C413.715 194.489 413.902 193.743 414.275 192.872C414.71 191.939 415.301 191.1 416.047 190.354C416.855 189.546 417.819 188.862 418.938 188.302C420.057 187.743 421.332 187.463 422.762 187.463H432.834L452.512 148.386C453.756 146.024 455.279 144.345 457.082 143.35C458.947 142.293 460.875 141.765 462.864 141.765C464.729 141.765 466.439 142.262 467.994 143.257C469.548 144.252 470.325 145.899 470.325 148.2C470.325 149.381 470.045 150.593 469.486 151.837C468.988 153.018 468.305 154.417 467.434 156.034C466.875 157.091 466.191 158.365 465.382 159.857C464.574 161.287 463.704 162.842 462.771 164.521C461.901 166.137 460.968 167.847 459.973 169.65C459.041 171.453 458.108 173.194 457.175 174.873C455.061 178.852 452.823 183.049 450.46 187.463H480.864C482.356 187.463 483.724 187.556 484.967 187.743C486.211 187.867 487.268 188.178 488.138 188.675C489.071 189.111 489.786 189.732 490.283 190.541C490.781 191.349 491.029 192.437 491.029 193.805C491.029 194.489 490.905 195.173 490.656 195.856C490.47 196.54 490.066 197.162 489.444 197.722C488.884 198.281 488.076 198.748 487.019 199.121C486.024 199.494 484.719 199.742 483.102 199.867L444.305 200.146ZM492.521 199.494C496.314 201.483 499.703 203.753 502.687 206.302C505.671 208.851 508.189 211.556 510.241 214.416C512.355 217.213 513.941 220.073 514.998 222.996C516.117 225.918 516.676 228.778 516.676 231.576C516.676 235.12 515.65 238.322 513.599 241.182C511.609 243.979 508.967 246.373 505.671 248.363C502.438 250.29 498.708 251.751 494.48 252.746C490.314 253.803 486.086 254.332 481.796 254.332C478.563 254.332 475.424 253.958 472.377 253.212C469.33 252.528 466.533 251.44 463.983 249.948C461.496 248.456 459.351 246.56 457.548 244.259C455.745 241.897 454.471 239.099 453.725 235.866C453.6 235.368 453.538 234.964 453.538 234.653C453.538 232.975 454.129 231.545 455.31 230.363C456.491 229.12 457.797 228.498 459.227 228.498C459.911 228.498 460.657 228.622 461.465 228.871C462.336 229.12 462.989 229.679 463.424 230.55C464.232 232.042 465.351 233.379 466.781 234.56C468.273 235.741 469.921 236.767 471.724 237.638C473.527 238.446 475.424 239.099 477.413 239.596C479.465 240.031 481.454 240.249 483.382 240.249C485.371 240.249 487.268 240.062 489.071 239.689C490.936 239.316 492.553 238.726 493.92 237.917C495.35 237.109 496.47 236.083 497.278 234.84C498.086 233.596 498.49 232.073 498.49 230.27C498.49 227.099 497.775 224.177 496.345 221.503C494.915 218.83 493.05 216.374 490.75 214.136C488.511 211.835 485.931 209.721 483.009 207.794C480.149 205.804 477.289 203.908 474.429 202.105C474.118 201.918 473.652 201.39 473.03 200.52C472.408 199.587 472.097 198.654 472.097 197.722C472.097 196.976 472.284 196.385 472.657 195.95C473.652 194.644 474.802 193.307 476.107 191.939C477.413 190.572 478.812 189.328 480.304 188.209C481.796 187.028 483.413 186.095 485.154 185.411C486.895 184.665 488.698 184.292 490.563 184.292C491.931 184.292 493.205 184.479 494.387 184.852C495.568 185.225 496.563 185.722 497.371 186.344C498.179 186.903 498.801 187.556 499.236 188.302C499.734 188.986 499.982 189.639 499.982 190.261C499.982 191.131 499.765 191.971 499.33 192.779C498.894 193.587 498.304 194.364 497.558 195.11C496.874 195.856 496.065 196.603 495.133 197.349C494.262 198.095 493.392 198.81 492.521 199.494ZM623.741 191.287C624.114 191.349 624.487 191.38 624.86 191.38C625.295 191.38 625.73 191.38 626.166 191.38C631.575 191.38 636.673 190.23 641.46 187.929C646.31 185.567 650.538 182.582 654.144 178.976C657.75 175.37 660.579 171.36 662.631 166.945C664.745 162.531 665.802 158.241 665.802 154.075C665.802 151.091 665.242 148.262 664.123 145.588C663.066 142.915 661.356 140.583 658.994 138.594C656.693 136.604 653.709 135.019 650.041 133.837C646.434 132.656 642.113 132.065 637.077 132.065C631.419 132.065 626.539 132.594 622.435 133.651C618.394 134.708 614.881 136.076 611.896 137.754C608.974 139.433 606.487 141.361 604.436 143.537C602.446 145.713 600.705 147.951 599.213 150.251C597.783 152.552 596.477 154.79 595.296 156.966C594.115 159.142 592.871 161.07 591.565 162.749C590.322 164.427 588.923 165.795 587.369 166.852C585.814 167.909 583.887 168.438 581.586 168.438C578.478 168.438 576.146 167.66 574.592 166.106C573.037 164.489 572.26 162.251 572.26 159.391C572.26 156.718 572.975 153.826 574.405 150.718C575.897 147.609 577.98 144.5 580.654 141.392C583.389 138.283 586.716 135.299 590.633 132.438C594.55 129.516 598.933 126.967 603.783 124.791C608.694 122.553 614.042 120.781 619.824 119.475C625.606 118.107 631.73 117.423 638.196 117.423C644.538 117.423 650.6 118.232 656.382 119.848C662.227 121.465 667.387 123.889 671.864 127.123C676.34 130.293 679.884 134.304 682.496 139.153C685.169 144.003 686.506 149.661 686.506 156.127C686.506 160.479 685.698 164.645 684.081 168.624C682.527 172.541 680.413 176.24 677.739 179.722C675.066 183.142 671.926 186.313 668.32 189.235C664.776 192.095 660.983 194.644 656.942 196.882C652.901 199.121 648.735 201.017 644.445 202.571C640.217 204.126 636.113 205.245 632.134 205.929C632.694 208.851 633.595 212.146 634.839 215.814C636.145 219.421 637.699 222.871 639.502 226.167C641.367 229.4 643.419 232.166 645.657 234.467C647.896 236.767 650.258 238.011 652.745 238.197C653.243 238.259 653.709 238.291 654.144 238.291C654.579 238.291 655.014 238.291 655.45 238.291C659.988 238.291 664.03 237.544 667.574 236.052C671.118 234.56 674.071 232.912 676.434 231.109C679.231 229.058 681.656 226.664 683.708 223.928C685.635 221.752 687.594 220.664 689.583 220.664C690.827 220.664 691.884 221.099 692.754 221.97C693.625 222.84 694.06 224.021 694.06 225.514C694.06 226.944 693.594 228.622 692.661 230.55C691.791 232.415 690.267 234.374 688.091 236.425C681.687 242.456 675.408 246.871 669.252 249.668C663.159 252.404 657.377 253.772 651.906 253.772C647.429 253.772 643.295 252.497 639.502 249.948C635.709 247.399 632.259 243.948 629.15 239.596C626.041 235.244 623.212 230.177 620.663 224.395C618.114 218.55 615.845 212.395 613.855 205.929C612.736 208.478 611.586 211.493 610.404 214.975C609.223 218.395 607.948 221.939 606.581 225.607C605.213 229.275 603.783 232.912 602.291 236.519C600.798 240.062 599.151 243.264 597.348 246.125C595.545 248.922 593.617 251.192 591.565 252.933C589.514 254.674 587.275 255.544 584.851 255.544C582.861 255.544 581.244 255.233 580.001 254.611C578.757 253.99 577.794 253.212 577.11 252.28C576.426 251.347 575.929 250.321 575.618 249.202C575.369 248.083 575.245 247.026 575.245 246.031C575.245 244.601 575.431 243.14 575.804 241.648C576.177 240.156 576.706 238.757 577.39 237.451L604.902 187.09C607.264 182.862 609.627 178.79 611.99 174.873C614.415 170.893 616.746 167.381 618.984 164.334C621.285 161.287 623.43 158.863 625.419 157.06C627.471 155.194 629.305 154.262 630.922 154.262C631.357 154.262 631.886 154.355 632.507 154.542C633.129 154.666 633.689 154.946 634.186 155.381C634.683 155.754 635.119 156.345 635.492 157.153C635.865 157.899 636.051 158.863 636.051 160.044C636.051 161.225 635.709 162.873 635.025 164.987C634.341 167.101 633.44 169.526 632.321 172.261C631.202 174.997 629.896 178.012 628.404 181.308C626.912 184.541 625.357 187.867 623.741 191.287ZM798.793 134.21C798.793 135.889 798.513 137.91 797.954 140.272C797.456 142.635 796.71 145.091 795.715 147.64C794.721 150.189 793.508 152.738 792.078 155.288C790.71 157.775 789.125 160.044 787.322 162.096C785.519 164.085 783.56 165.702 781.446 166.945C779.332 168.189 777.063 168.811 774.638 168.811C774.079 168.811 773.333 168.779 772.4 168.717C771.529 168.593 770.628 168.375 769.695 168.064C768.825 167.691 768.048 167.163 767.364 166.479C766.742 165.795 766.431 164.894 766.431 163.774C766.431 163.028 766.618 162.158 766.991 161.163C767.426 160.168 768.172 159.018 769.229 157.712C770.348 156.469 771.561 155.008 772.866 153.329C774.172 151.588 775.353 149.785 776.41 147.92C777.467 146.055 778.338 144.221 779.021 142.417C779.768 140.614 780.141 138.998 780.141 137.568C780.141 135.765 779.705 134.335 778.835 133.278C778.027 132.159 776.597 131.599 774.545 131.599C771.871 131.599 768.856 132.47 765.499 134.21C762.141 135.951 758.628 138.345 754.96 141.392C751.292 144.438 747.561 148.013 743.769 152.117C739.976 156.158 736.308 160.51 732.764 165.173C729.22 169.774 725.862 174.593 722.691 179.629C719.583 184.603 716.847 189.546 714.484 194.458C712.184 199.307 710.35 204.001 708.982 208.54C707.676 213.017 707.023 217.089 707.023 220.757C707.023 225.296 708.236 228.933 710.661 231.669C713.085 234.405 717.096 235.772 722.691 235.772C725.303 235.772 729.189 234.778 734.349 232.788C739.51 230.736 743.8 228.716 747.219 226.726C750.701 224.674 754.183 222.436 757.665 220.011C761.208 217.524 764.566 215.162 767.737 212.923C770.908 210.623 773.799 208.571 776.41 206.768C779.021 204.903 781.167 203.597 782.845 202.851C783.156 202.602 783.529 202.478 783.964 202.478C784.897 202.478 785.519 203.255 785.83 204.81C786.203 206.302 786.389 208.012 786.389 209.939C786.389 210.996 786.234 212.302 785.923 213.856C785.674 215.348 784.804 217.089 783.312 219.079C782.628 219.887 781.353 221.255 779.488 223.182C777.623 225.11 775.291 227.286 772.493 229.71C769.695 232.135 766.493 234.653 762.887 237.265C759.281 239.876 755.364 242.27 751.136 244.446C746.971 246.622 741.561 248.767 734.909 250.881C728.318 252.995 722.567 254.052 717.655 254.052C711.873 254.052 706.93 253.368 702.827 252C698.723 250.57 695.366 248.611 692.754 246.125C690.143 243.638 688.216 240.684 686.972 237.265C685.791 233.783 685.2 229.99 685.2 225.887C685.2 220.788 685.977 215.317 687.532 209.473C689.086 203.628 691.231 197.691 693.967 191.66C696.765 185.629 700.06 179.598 703.853 173.567C707.707 167.536 711.904 161.785 716.443 156.313C721.044 150.78 725.924 145.651 731.085 140.925C736.245 136.2 741.53 132.097 746.939 128.615C752.349 125.133 757.789 122.397 763.26 120.408C768.732 118.418 774.11 117.423 779.395 117.423C782.006 117.423 784.493 117.734 786.855 118.356C789.218 118.916 791.27 119.848 793.011 121.154C794.814 122.459 796.213 124.2 797.208 126.376C798.264 128.49 798.793 131.102 798.793 134.21Z" fill="black"/>
<path d="M432.547 324.971C431.49 326.899 430.091 329.448 428.35 332.619C426.671 335.79 424.713 339.333 422.475 343.25C420.299 347.167 417.905 351.395 415.293 355.934C412.744 360.411 410.071 364.918 407.273 369.457C404.537 373.996 401.708 378.472 398.786 382.887C395.926 387.239 393.128 391.28 390.393 395.011C397.107 394.327 403.574 392.617 409.791 389.881C416.008 387.146 421.822 383.757 427.231 379.716C432.702 375.612 437.676 371.042 442.153 366.006C446.692 360.908 450.546 355.654 453.717 350.245C456.95 344.774 459.437 339.302 461.178 333.831C462.981 328.36 463.883 323.199 463.883 318.35C463.883 314.246 463.354 310.453 462.297 306.972C461.303 303.49 459.748 300.474 457.634 297.925C455.583 295.376 452.94 293.387 449.707 291.957C446.474 290.527 442.681 289.812 438.329 289.812C434.288 289.812 430.215 290.216 426.112 291.024C422.07 291.77 418.185 292.796 414.454 294.102C410.724 295.407 407.273 296.962 404.102 298.765C400.993 300.506 398.32 302.402 396.082 304.454C393.595 307.189 391.387 309.925 389.46 312.661C387.595 315.396 385.729 317.852 383.864 320.028C382.061 322.204 380.103 323.976 377.989 325.344C375.875 326.712 373.388 327.396 370.528 327.396C365.181 327.396 362.507 325.033 362.507 320.308C362.507 317.324 363.471 314.122 365.398 310.702C367.326 307.22 369.999 303.801 373.419 300.443C376.901 297.024 381.004 293.76 385.729 290.651C390.517 287.48 395.771 284.713 401.491 282.351C407.211 279.926 413.304 277.998 419.77 276.568C426.236 275.138 432.889 274.423 439.728 274.423C447.686 274.423 454.619 275.605 460.525 277.967C466.432 280.33 471.313 283.594 475.167 287.76C479.084 291.863 481.976 296.713 483.841 302.309C485.768 307.904 486.732 313.935 486.732 320.401C486.732 326.868 485.613 333.645 483.375 340.732C481.198 347.82 477.965 354.784 473.675 361.623C469.447 368.462 464.194 374.959 457.914 381.115C451.697 387.27 444.515 392.679 436.371 397.342C428.288 402.005 419.304 405.705 409.418 408.44C399.594 411.176 388.963 412.544 377.522 412.544C375.035 412.544 373.077 411.736 371.647 410.119C370.217 408.565 369.502 406.637 369.502 404.337C369.502 402.534 369.813 400.793 370.435 399.114C371.056 397.436 371.865 395.881 372.859 394.451L411.19 318.256C412.993 315.458 414.765 313.22 416.506 311.542C418.309 309.863 419.957 308.557 421.449 307.625C423.003 306.692 424.371 306.101 425.552 305.853C426.734 305.542 427.635 305.386 428.257 305.386C431.055 305.386 433.044 306.194 434.226 307.811C435.407 309.428 435.998 311.355 435.998 313.593C435.998 315.396 435.687 317.293 435.065 319.282C434.443 321.272 433.604 323.168 432.547 324.971ZM518.721 354.628C521.146 353.136 523.632 351.768 526.182 350.525C528.793 349.281 531.311 348.224 533.736 347.354C536.161 346.421 538.461 345.706 540.637 345.209C542.875 344.649 544.865 344.37 546.606 344.37C549.404 344.37 551.549 345.054 553.041 346.421C554.595 347.727 555.373 349.965 555.373 353.136C555.373 353.82 555.341 354.566 555.279 355.375C555.217 356.121 555.093 356.929 554.906 357.799C554.595 359.416 553.663 361.312 552.108 363.488C550.554 365.664 548.72 367.934 546.606 370.296C544.554 372.659 542.316 375.053 539.891 377.478C537.528 379.84 535.321 382.047 533.27 384.099C531.28 386.089 529.601 387.83 528.233 389.322C526.928 390.814 526.275 391.84 526.275 392.399C526.275 392.897 526.306 393.239 526.368 393.425C526.43 393.612 526.71 393.705 527.208 393.705C530.565 392.275 534.295 390.565 538.399 388.576C542.565 386.524 546.699 384.441 550.803 382.327C554.906 380.213 558.792 378.161 562.46 376.172C566.129 374.12 569.237 372.348 571.787 370.856C572.346 370.545 572.906 370.296 573.465 370.11C574.087 369.861 574.647 369.737 575.144 369.737C576.263 369.737 577.196 370.11 577.942 370.856C578.688 371.602 579.061 372.597 579.061 373.84C579.061 375.27 578.439 376.918 577.196 378.783C576.014 380.586 573.994 382.483 571.134 384.472C568.958 385.84 566.502 387.394 563.766 389.135C561.093 390.814 558.264 392.586 555.279 394.451C552.357 396.254 549.373 398.026 546.326 399.767C543.342 401.508 540.451 403.062 537.653 404.43C534.855 405.798 532.213 406.917 529.726 407.788C527.301 408.596 525.187 409 523.384 409C519.094 409 515.861 407.974 513.685 405.922C511.571 403.871 510.514 401.228 510.514 397.995C510.514 397.498 510.545 397.125 510.607 396.876C511.042 394.14 511.85 391.498 513.032 388.949C514.213 386.4 515.55 383.975 517.042 381.674C518.534 379.374 520.089 377.198 521.705 375.146C523.322 373.032 524.783 371.074 526.088 369.271C527.456 367.405 528.575 365.695 529.446 364.141C530.316 362.587 530.751 361.157 530.751 359.851C530.751 359.54 530.689 359.229 530.565 358.918C530.441 358.608 530.161 358.452 529.726 358.452C528.979 358.452 527.736 358.732 525.995 359.292C524.316 359.851 522.513 360.597 520.586 361.53C518.659 362.462 516.824 363.55 515.083 364.794C513.343 365.975 512.099 367.25 511.353 368.618C510.358 370.359 509.208 372.566 507.902 375.239C506.597 377.913 505.229 380.711 503.799 383.633C502.431 386.555 501.094 389.446 499.789 392.306C498.483 395.166 497.364 397.622 496.431 399.674C495.685 401.477 494.69 403.093 493.447 404.523C492.265 405.953 490.96 407.166 489.53 408.161C488.1 409.155 486.639 409.933 485.146 410.492C483.654 411.052 482.286 411.332 481.043 411.332C479.613 411.332 478.463 410.958 477.592 410.212C476.784 409.466 476.38 408.254 476.38 406.575C476.38 405.891 476.473 405.052 476.66 404.057C476.908 403 477.375 401.85 478.059 400.606C479.178 398.493 480.297 396.192 481.416 393.705C482.597 391.218 483.934 388.389 485.426 385.218C486.918 381.985 488.628 378.317 490.556 374.213C492.545 370.048 494.877 365.26 497.55 359.851C496.68 359.105 495.934 358.203 495.312 357.146C494.752 356.027 494.473 354.66 494.473 353.043C494.473 351.551 494.784 350.276 495.405 349.219C496.027 348.1 496.866 347.199 497.923 346.515C498.98 345.831 500.193 345.333 501.561 345.022C502.991 344.649 504.483 344.463 506.037 344.463C507.654 344.463 509.27 344.618 510.887 344.929C512.503 345.178 513.933 345.582 515.177 346.142C516.482 346.701 517.539 347.385 518.348 348.193C519.156 349.002 519.56 349.934 519.56 350.991C519.56 351.178 519.498 351.426 519.374 351.737C519.249 352.048 519.094 352.39 518.907 352.763C518.783 353.136 518.659 353.478 518.534 353.789C518.41 354.1 518.348 354.349 518.348 354.535C518.348 354.66 518.379 354.722 518.441 354.722H518.534L518.721 354.628ZM601.724 358.079C598.801 358.079 595.972 358.825 593.237 360.317C590.501 361.81 588.076 363.768 585.962 366.193C583.848 368.618 582.17 371.353 580.926 374.4C579.683 377.384 579.061 380.4 579.061 383.446C579.061 384.69 579.123 385.995 579.248 387.363C579.434 388.669 579.807 389.881 580.367 391C580.926 392.12 581.703 393.052 582.698 393.798C583.755 394.544 585.154 394.917 586.895 394.917C588.263 394.917 589.848 394.327 591.651 393.146C593.517 391.902 595.413 390.348 597.34 388.482C599.33 386.555 601.257 384.472 603.123 382.234C604.988 379.933 606.667 377.695 608.159 375.519C609.651 373.343 610.863 371.384 611.796 369.644C612.729 367.903 613.195 366.628 613.195 365.82C613.195 364.639 612.791 363.582 611.982 362.649C611.174 361.654 610.179 360.815 608.998 360.131C607.817 359.447 606.542 358.95 605.174 358.639C603.869 358.266 602.718 358.079 601.724 358.079ZM666.354 382.141C665.235 383.198 663.743 384.659 661.877 386.524C660.012 388.389 657.867 390.41 655.442 392.586C653.08 394.762 650.531 396.969 647.795 399.208C645.121 401.384 642.355 403.373 639.495 405.176C636.697 406.979 633.93 408.44 631.194 409.56C628.459 410.741 625.878 411.332 623.454 411.332C621.278 411.332 619.412 410.865 617.858 409.933C616.304 409 614.998 407.788 613.941 406.295C612.946 404.803 612.2 403.125 611.703 401.259C611.205 399.332 610.957 397.373 610.957 395.384C610.957 394.078 611.05 392.804 611.236 391.56C611.423 390.254 611.734 389.042 612.169 387.923C610.242 390.534 608.034 393.239 605.547 396.037C603.123 398.772 600.48 401.29 597.62 403.591C594.822 405.829 591.869 407.663 588.76 409.093C585.714 410.585 582.605 411.332 579.434 411.332C577.818 411.332 575.921 410.99 573.745 410.306C571.631 409.684 569.611 408.627 567.683 407.135C565.756 405.643 564.139 403.715 562.833 401.353C561.528 398.99 560.875 396.099 560.875 392.679C560.875 390.13 561.248 387.083 561.994 383.54C562.802 379.996 563.984 376.327 565.538 372.535C567.155 368.68 569.175 364.887 571.6 361.157C574.087 357.426 577.009 354.1 580.367 351.178C583.724 348.193 587.548 345.8 591.838 343.997C596.128 342.131 600.915 341.199 606.2 341.199C608.936 341.199 611.33 341.541 613.381 342.225C615.433 342.909 617.174 343.655 618.604 344.463C620.221 345.458 621.651 346.546 622.894 347.727C623.951 347.167 625.039 346.639 626.158 346.142C627.091 345.706 628.055 345.333 629.049 345.022C630.106 344.649 631.008 344.463 631.754 344.463C634.117 344.463 636.044 345.116 637.536 346.421C639.028 347.727 639.774 349.157 639.774 350.711C639.774 351.147 639.743 351.489 639.681 351.737C639.37 352.919 638.873 354.411 638.189 356.214C637.567 358.017 636.852 360.038 636.044 362.276C635.236 364.452 634.396 366.752 633.526 369.177C632.718 371.54 631.972 373.871 631.288 376.172C630.604 378.472 630.044 380.648 629.609 382.7C629.174 384.69 628.956 386.4 628.956 387.83C628.956 389.695 629.267 391.249 629.889 392.493C630.51 393.674 631.567 394.265 633.06 394.265C633.992 394.265 635.08 393.985 636.324 393.425C637.629 392.804 639.028 391.995 640.521 391C642.013 390.006 643.536 388.887 645.09 387.643C646.707 386.337 648.261 385.032 649.753 383.726C653.235 380.617 656.935 377.073 660.852 373.094C661.846 372.286 662.81 371.882 663.743 371.882C664.986 371.882 666.012 372.504 666.82 373.747C667.691 374.928 668.126 376.265 668.126 377.757C668.126 379.498 667.535 380.959 666.354 382.141ZM699.928 341.199C702.664 341.199 705.058 341.541 707.109 342.225C709.161 342.909 710.902 343.655 712.332 344.463C713.949 345.458 715.379 346.546 716.622 347.727C717.493 347.167 718.425 346.639 719.42 346.142C720.29 345.706 721.254 345.333 722.311 345.022C723.368 344.649 724.425 344.463 725.482 344.463C728.218 344.463 730.332 345.022 731.824 346.142C733.316 347.261 734.062 348.597 734.062 350.152C734.062 350.96 733.844 351.768 733.409 352.577L711.586 393.892L713.358 392.306C720.694 388.016 726.725 384.659 731.451 382.234C736.176 379.747 739.938 377.913 742.735 376.731C745.533 375.55 747.523 374.835 748.704 374.586C749.948 374.276 750.725 374.12 751.036 374.12C752.466 374.12 753.554 374.68 754.3 375.799C755.108 376.856 755.512 378.193 755.512 379.809C755.512 381.612 754.984 383.446 753.927 385.312C752.932 387.177 751.378 388.514 749.264 389.322C746.466 390.752 743.202 392.306 739.471 393.985C735.741 395.601 731.855 397.404 727.813 399.394C723.772 401.384 719.7 403.622 715.596 406.109C711.555 408.534 707.762 411.238 704.218 414.223L686.125 446.958C684.633 450.501 683.265 453.393 682.022 455.631C680.841 457.869 679.659 459.641 678.478 460.947C677.297 462.252 676.084 463.154 674.841 463.651C673.597 464.149 672.167 464.397 670.551 464.397C668.126 464.397 666.199 463.558 664.769 461.879C663.401 460.201 662.717 458.18 662.717 455.817C662.717 453.33 663.307 450.439 664.489 447.144C665.67 443.849 667.318 440.274 669.432 436.419C671.608 432.626 674.219 428.616 677.266 424.388C680.312 420.222 683.701 415.964 687.431 411.611L698.996 396.876C696.633 399.052 694.301 400.917 692.001 402.472C689.701 404.026 687.493 405.301 685.379 406.295C683.265 407.228 681.276 407.912 679.411 408.347C677.608 408.782 676.022 409 674.654 409C672.167 409 669.867 408.44 667.753 407.321C665.639 406.14 663.805 404.523 662.25 402.472C660.758 400.42 659.577 397.995 658.707 395.197C657.836 392.399 657.401 389.353 657.401 386.058C657.401 379.218 658.707 373.032 661.318 367.499C663.991 361.965 667.38 357.271 671.483 353.416C675.649 349.499 680.219 346.484 685.193 344.37C690.229 342.256 695.141 341.199 699.928 341.199ZM696.384 357.613C693.462 357.613 690.633 358.359 687.897 359.851C685.162 361.281 682.737 363.208 680.623 365.633C678.509 367.996 676.83 370.732 675.587 373.84C674.343 376.949 673.722 380.151 673.722 383.446C673.722 384.441 673.784 385.529 673.908 386.71C674.095 387.83 674.437 388.887 674.934 389.881C675.494 390.876 676.271 391.715 677.266 392.399C678.323 393.021 679.753 393.332 681.556 393.332C682.861 393.332 684.385 392.772 686.125 391.653C687.929 390.472 689.763 389.011 691.628 387.27C693.555 385.467 695.421 383.508 697.224 381.395C699.027 379.218 700.643 377.104 702.073 375.053C703.565 373.001 704.747 371.167 705.617 369.55C706.488 367.872 706.923 366.628 706.923 365.82C706.923 364.452 706.55 363.271 705.804 362.276C705.058 361.219 704.125 360.348 703.006 359.665C701.949 358.981 700.799 358.483 699.555 358.172C698.374 357.799 697.317 357.613 696.384 357.613ZM906.876 291.21C906.876 292.889 906.596 294.91 906.037 297.272C905.539 299.635 904.793 302.091 903.798 304.64C902.804 307.189 901.591 309.738 900.161 312.288C898.793 314.775 897.208 317.044 895.405 319.096C893.602 321.085 891.643 322.702 889.529 323.945C887.415 325.189 885.146 325.811 882.721 325.811C882.162 325.811 881.416 325.779 880.483 325.717C879.612 325.593 878.711 325.375 877.778 325.064C876.908 324.691 876.131 324.163 875.447 323.479C874.825 322.795 874.514 321.894 874.514 320.774C874.514 320.028 874.701 319.158 875.074 318.163C875.509 317.168 876.255 316.018 877.312 314.712C878.431 313.469 879.644 312.008 880.949 310.329C882.255 308.588 883.436 306.785 884.493 304.92C885.55 303.055 886.421 301.221 887.104 299.417C887.851 297.614 888.224 295.998 888.224 294.568C888.224 292.765 887.788 291.335 886.918 290.278C886.11 289.159 884.68 288.599 882.628 288.599C879.954 288.599 876.939 289.47 873.582 291.21C870.224 292.951 866.711 295.345 863.043 298.392C859.375 301.438 855.644 305.013 851.852 309.117C848.059 313.158 844.391 317.51 840.847 322.173C837.303 326.774 833.945 331.593 830.774 336.629C827.666 341.603 824.93 346.546 822.567 351.458C820.267 356.307 818.433 361.001 817.065 365.54C815.759 370.017 815.106 374.089 815.106 377.757C815.106 382.296 816.319 385.933 818.744 388.669C821.168 391.405 825.179 392.772 830.774 392.772C833.386 392.772 837.272 391.778 842.432 389.788C847.593 387.736 851.883 385.716 855.302 383.726C858.784 381.674 862.266 379.436 865.748 377.011C869.292 374.524 872.649 372.162 875.82 369.923C878.991 367.623 881.882 365.571 884.493 363.768C887.104 361.903 889.25 360.597 890.928 359.851C891.239 359.602 891.612 359.478 892.047 359.478C892.98 359.478 893.602 360.255 893.913 361.81C894.286 363.302 894.472 365.012 894.472 366.939C894.472 367.996 894.317 369.302 894.006 370.856C893.757 372.348 892.887 374.089 891.395 376.079C890.711 376.887 889.436 378.255 887.571 380.182C885.706 382.11 883.374 384.286 880.576 386.71C877.778 389.135 874.576 391.653 870.97 394.265C867.364 396.876 863.447 399.27 859.219 401.446C855.054 403.622 849.644 405.767 842.992 407.881C836.401 409.995 830.65 411.052 825.738 411.052C819.956 411.052 815.013 410.368 810.91 409C806.806 407.57 803.449 405.611 800.837 403.125C798.226 400.638 796.299 397.684 795.055 394.265C793.874 390.783 793.283 386.99 793.283 382.887C793.283 377.788 794.06 372.317 795.615 366.473C797.169 360.628 799.314 354.691 802.05 348.66C804.848 342.629 808.143 336.598 811.936 330.567C815.79 324.536 819.987 318.785 824.526 313.313C829.127 307.78 834.007 302.651 839.168 297.925C844.328 293.2 849.613 289.097 855.022 285.615C860.432 282.133 865.872 279.397 871.343 277.408C876.815 275.418 882.193 274.423 887.478 274.423C890.089 274.423 892.576 274.734 894.938 275.356C897.301 275.916 899.353 276.848 901.094 278.154C902.897 279.459 904.296 281.2 905.291 283.376C906.347 285.49 906.876 288.102 906.876 291.21ZM902.12 382.047C901.436 383.477 900.752 385.156 900.068 387.083C899.446 388.949 899.135 390.627 899.135 392.12C899.135 393.052 899.322 393.798 899.695 394.358C900.068 394.917 900.783 395.197 901.84 395.197C903.146 395.197 904.762 394.824 906.689 394.078C908.679 393.27 910.793 392.244 913.031 391C915.332 389.695 917.694 388.234 920.119 386.617C922.606 384.938 925.062 383.229 927.487 381.488C929.912 379.685 932.212 377.913 934.388 376.172C936.626 374.369 938.616 372.721 940.357 371.229C940.854 370.794 941.445 370.483 942.129 370.296C942.813 370.11 943.403 370.017 943.901 370.017C945.144 370.017 946.17 370.452 946.979 371.322C947.787 372.193 948.191 373.343 948.191 374.773C948.191 376.079 947.756 377.54 946.885 379.156C946.015 380.773 944.492 382.358 942.315 383.913C938.336 387.581 934.326 391.063 930.285 394.358C926.243 397.653 922.202 400.575 918.161 403.125C914.181 405.611 910.202 407.601 906.223 409.093C902.306 410.585 898.482 411.332 894.752 411.332C892.203 411.332 890.058 410.99 888.317 410.306C886.638 409.622 885.27 408.689 884.213 407.508C883.219 406.326 882.504 404.928 882.068 403.311C881.633 401.694 881.416 399.985 881.416 398.182C881.416 395.135 881.851 392.026 882.721 388.855C883.654 385.622 884.742 382.669 885.985 379.996C888.161 375.146 890.369 370.327 892.607 365.54C894.845 360.753 896.897 356.369 898.762 352.39L927.021 292.236C928.14 289.812 929.632 288.102 931.497 287.107C933.424 286.112 935.352 285.615 937.279 285.615C939.207 285.615 940.948 286.143 942.502 287.2C944.118 288.257 944.927 289.967 944.927 292.33C944.927 293.449 944.647 294.63 944.087 295.874C943.59 297.117 942.937 298.454 942.129 299.884C940.575 302.806 938.709 306.381 936.533 310.609C934.419 314.837 932.119 319.438 929.632 324.412C927.207 329.386 924.689 334.577 922.078 339.986C919.528 345.333 917.01 350.556 914.523 355.654C912.099 360.753 909.798 365.602 907.622 370.203C905.508 374.742 903.674 378.69 902.12 382.047ZM1035.02 386.71C1032.28 389.819 1029.08 392.866 1025.41 395.85C1021.81 398.772 1018.08 401.384 1014.22 403.684C1010.37 405.985 1006.57 407.819 1002.84 409.187C999.112 410.617 995.754 411.332 992.77 411.332C989.786 411.332 987.361 410.492 985.496 408.813C983.63 407.135 982.698 404.275 982.698 400.233C982.698 397.373 983.195 394.047 984.19 390.254C982.573 392.679 980.553 395.135 978.128 397.622C975.703 400.109 972.936 402.378 969.828 404.43C966.719 406.482 963.237 408.13 959.382 409.373C955.528 410.679 951.331 411.332 946.792 411.332C944.74 411.332 942.751 411.114 940.823 410.679C938.958 410.243 937.31 409.497 935.88 408.44C934.45 407.383 933.3 405.985 932.43 404.244C931.559 402.441 931.124 400.202 931.124 397.529C931.124 397.467 931.248 396.534 931.497 394.731C931.746 392.866 932.523 389.975 933.829 386.058C935.196 382.078 937.279 376.949 940.077 370.669C942.875 364.39 946.823 356.773 951.921 347.82C953.227 345.458 954.719 343.779 956.398 342.784C958.139 341.727 960.004 341.199 961.994 341.199C962.864 341.199 963.766 341.323 964.698 341.572C965.631 341.758 966.501 342.1 967.31 342.598C968.118 343.033 968.771 343.624 969.268 344.37C969.765 345.054 970.014 345.862 970.014 346.794C970.014 347.416 969.921 348.007 969.734 348.566C969.424 349.623 968.74 351.022 967.683 352.763C966.688 354.442 965.507 356.4 964.139 358.639C962.771 360.815 961.31 363.177 959.755 365.727C958.263 368.276 956.864 370.918 955.559 373.654C954.253 376.389 953.134 379.187 952.201 382.047C951.269 384.845 950.74 387.581 950.616 390.254C950.616 391.374 950.927 392.399 951.548 393.332C952.17 394.265 953.196 394.731 954.626 394.731C958.667 394.731 962.522 393.612 966.19 391.374C969.859 389.135 973.247 386.368 976.356 383.073C979.465 379.716 982.263 376.141 984.75 372.348C987.299 368.493 989.413 364.98 991.091 361.81C992.273 359.696 993.299 357.426 994.169 355.001C995.102 352.577 996.096 350.338 997.153 348.287C998.21 346.235 999.423 344.525 1000.79 343.157C1002.16 341.789 1003.87 341.105 1005.92 341.105C1008.16 341.105 1009.93 341.82 1011.24 343.25C1012.54 344.681 1013.19 346.39 1013.19 348.38C1013.19 349.499 1012.76 351.053 1011.89 353.043C1011.08 354.97 1010.02 357.209 1008.72 359.758C1007.47 362.245 1006.11 364.918 1004.61 367.778C1003.12 370.638 1001.72 373.561 1000.42 376.545C999.174 379.467 998.117 382.358 997.247 385.218C996.438 388.016 996.034 390.627 996.034 393.052C996.034 395.291 997.402 396.41 1000.14 396.41C1002.07 396.41 1004.46 395.85 1007.32 394.731C1010.18 393.612 1013.16 392.057 1016.27 390.068C1019.44 388.016 1022.58 385.622 1025.69 382.887C1028.86 380.151 1031.66 377.198 1034.08 374.027L1035.02 386.71ZM1069.06 356.68C1065.51 356.68 1061.97 357.551 1058.43 359.292C1054.88 360.97 1051.68 363.208 1048.82 366.006C1046.02 368.804 1043.72 371.975 1041.92 375.519C1040.12 379.001 1039.21 382.545 1039.21 386.151C1039.21 387.146 1039.31 388.172 1039.49 389.229C1039.68 390.223 1040.05 391.156 1040.61 392.026C1041.24 392.897 1042.11 393.612 1043.22 394.171C1044.34 394.731 1045.84 395.011 1047.7 395.011C1051.31 395.011 1054.79 394.171 1058.15 392.493C1061.57 390.752 1064.61 388.482 1067.29 385.685C1069.96 382.887 1072.1 379.747 1073.72 376.265C1075.34 372.721 1076.15 369.177 1076.15 365.633C1076.15 364.701 1076.05 363.706 1075.87 362.649C1075.74 361.592 1075.43 360.628 1074.93 359.758C1074.44 358.887 1073.72 358.172 1072.79 357.613C1071.86 356.991 1070.61 356.68 1069.06 356.68ZM1076.89 394.265C1071.61 400.606 1065.98 405.27 1060.01 408.254C1054.11 411.176 1047.7 412.637 1040.8 412.637C1037.01 412.637 1033.81 412.078 1031.19 410.958C1028.58 409.902 1026.47 408.44 1024.85 406.575C1023.24 404.71 1022.05 402.534 1021.31 400.047C1020.62 397.56 1020.28 394.917 1020.28 392.12C1020.28 388.949 1020.69 385.685 1021.49 382.327C1022.3 378.908 1023.36 375.612 1024.67 372.441C1025.54 370.39 1026.25 368.68 1026.81 367.312C1027.37 365.944 1027.84 364.794 1028.21 363.861C1028.58 362.867 1028.89 362.027 1029.14 361.343C1029.45 360.597 1029.76 359.851 1030.07 359.105C1030.39 358.297 1030.76 357.395 1031.19 356.4C1031.63 355.343 1032.22 354.007 1032.97 352.39L1060.2 291.863C1060.57 291.055 1061.1 290.278 1061.78 289.532C1062.53 288.786 1063.37 288.133 1064.3 287.573C1065.23 286.951 1066.23 286.485 1067.29 286.174C1068.41 285.801 1069.52 285.615 1070.64 285.615C1073.5 285.615 1075.49 286.174 1076.61 287.293C1077.79 288.413 1078.38 289.78 1078.38 291.397C1078.38 292.64 1078.07 294.008 1077.45 295.5C1076.83 296.931 1076.15 298.267 1075.4 299.511C1070.8 308.34 1066.45 317.324 1062.34 326.463C1058.24 335.541 1053.89 344.525 1049.29 353.416C1051.28 351.862 1053.39 350.369 1055.63 348.939C1057.87 347.447 1060.2 346.142 1062.62 345.022C1065.05 343.841 1067.57 342.909 1070.18 342.225C1072.79 341.479 1075.46 341.105 1078.2 341.105C1080.13 341.105 1082.08 341.479 1084.07 342.225C1086.06 342.971 1087.87 344.059 1089.48 345.489C1091.16 346.919 1092.5 348.691 1093.49 350.805C1094.55 352.856 1095.08 355.25 1095.08 357.986C1095.08 358.608 1094.89 359.851 1094.52 361.716C1094.15 363.582 1093.59 365.695 1092.84 368.058C1092.16 370.359 1091.29 372.752 1090.23 375.239C1089.23 377.664 1088.11 379.809 1086.87 381.674C1087.31 382.358 1087.87 382.793 1088.55 382.98C1089.23 383.104 1090.01 383.167 1090.88 383.167C1093.74 383.167 1096.57 382.793 1099.37 382.047C1102.23 381.301 1104.9 380.4 1107.39 379.343C1109.94 378.224 1112.27 377.073 1114.38 375.892C1116.5 374.711 1118.27 373.685 1119.7 372.814C1120.45 372.006 1121.25 371.602 1122.12 371.602C1123.18 371.602 1124.08 372.068 1124.83 373.001C1125.64 373.934 1126.04 375.146 1126.04 376.638C1126.04 378.068 1125.73 379.498 1125.11 380.928C1124.55 382.296 1123.49 383.819 1121.94 385.498C1119.14 387.177 1116.31 388.762 1113.45 390.254C1110.65 391.747 1107.79 393.052 1104.87 394.171C1101.95 395.228 1098.96 396.099 1095.92 396.783C1092.93 397.404 1089.89 397.715 1086.78 397.715C1084.79 397.715 1082.95 397.436 1081.28 396.876C1079.6 396.316 1078.14 395.446 1076.89 394.265Z" fill="black"/>
</svg>
